<?xml version="1.0" encoding="utf-8"?>
<!-- Generator: Adobe Illustrator 23.0.1, SVG Export Plug-In . SVG Version: 6.00 Build 0)  -->
<svg version="1.1" id="Layer_1" xmlns="http://www.w3.org/2000/svg" xmlns:xlink="http://www.w3.org/1999/xlink" x="0px" y="0px"
	 viewBox="0 0 100 100" style="enable-background:new 0 0 100 100;" xml:space="preserve">
<path d="M72.85,48.4c-0.91-1.7-2.26-3.16-3.96-4.22l-7.6-4.75v-3.95h3.23v-8.06c0-2.67-2.17-4.84-4.84-4.84h-3.23V12.9h19.35V0
	H51.61c-4.45,0-8.06,3.62-8.06,8.06v14.52H33.03c3.77-5.64,3.17-13.35-1.8-18.33c-5.66-5.66-14.87-5.66-20.53,0
	c-5.66,5.66-5.66,14.87,0,20.53c1.53,1.54,3.4,2.68,5.43,3.39v7.31h3.23v3.95l-7.6,4.75c-3.32,2.08-5.3,5.66-5.3,9.58v38.18
	c0,4.45,3.62,8.06,8.06,8.06h51.61c3.92,0,7.19-2.81,7.91-6.53c10.88-0.75,19.51-9.82,19.51-20.89v-3.23
	C93.55,57.88,84.28,48.55,72.85,48.4z M69.35,3.23h3.23v6.45h-3.23V3.23z M46.77,8.06c0-2.67,2.17-4.84,4.84-4.84h14.52v6.45h-12.9
	v12.9h-6.45V8.06z M30,21.27l-6.75-6.75L30,7.76C32.99,11.75,32.99,17.28,30,21.27z M27.72,5.48l-6.75,6.75l-6.75-6.75
	C18.21,2.5,23.73,2.5,27.72,5.48z M11.93,7.76l6.75,6.75l-6.75,6.75C8.95,17.28,8.95,11.75,11.93,7.76z M16.8,25
	c-0.92-0.37-1.79-0.85-2.59-1.45l6.76-6.76l5.78,5.78h-5.78C19.18,22.58,17.64,23.56,16.8,25z M70.97,58.06v25.81v8.06
	c0,2.67-2.17,4.84-4.84,4.84H14.52c-2.67,0-4.84-2.17-4.84-4.84V53.75c0-2.8,1.42-5.36,3.79-6.84l9.11-5.7v-5.73h29.03v-3.23H19.35
	v-4.84c0-0.89,0.72-1.61,1.61-1.61h22.58h12.9h3.23c0.89,0,1.61,0.72,1.61,1.61v4.84h-6.45v3.23h3.23v5.73l9.11,5.7
	c2.37,1.48,3.79,4.04,3.79,6.84V58.06z M90.32,72.58c0,9.24-7.1,16.84-16.13,17.66v-6.5c5.46-0.79,9.68-5.49,9.68-11.16v-3.23
	c0-5.68-4.22-10.37-9.68-11.16v-4.44c0-0.7-0.09-1.39-0.21-2.07c9.13,0.72,16.34,8.36,16.34,17.67V72.58z M74.19,80.48V61.45
	c3.68,0.75,6.45,4.01,6.45,7.9v3.23C80.65,76.48,77.87,79.73,74.19,80.48z M22.58,48.39c-4.45,0-8.06,3.62-8.06,8.06
	c0,4.45,3.62,8.06,8.06,8.06s8.06-3.62,8.06-8.06C30.65,52,27.03,48.39,22.58,48.39z M22.58,61.29c-2.67,0-4.84-2.17-4.84-4.84
	s2.17-4.84,4.84-4.84s4.84,2.17,4.84,4.84S25.25,61.29,22.58,61.29z M50,70.97c-5.34,0-9.68,4.34-9.68,9.68
	c0,5.34,4.34,9.68,9.68,9.68s9.68-4.34,9.68-9.68C59.68,75.31,55.34,70.97,50,70.97z M50,87.1c-3.56,0-6.45-2.89-6.45-6.45
	c0-3.56,2.89-6.45,6.45-6.45s6.45,2.89,6.45,6.45C56.45,84.2,53.56,87.1,50,87.1z M20.97,74.19c-3.56,0-6.45,2.89-6.45,6.45
	c0,3.56,2.89,6.45,6.45,6.45s6.45-2.89,6.45-6.45C27.42,77.09,24.53,74.19,20.97,74.19z M20.97,83.87c-1.78,0-3.23-1.45-3.23-3.23
	c0-1.78,1.45-3.23,3.23-3.23c1.78,0,3.23,1.45,3.23,3.23C24.19,82.42,22.75,83.87,20.97,83.87z M58.06,51.61
	c-3.56,0-6.45,2.89-6.45,6.45c0,3.56,2.89,6.45,6.45,6.45c3.56,0,6.45-2.89,6.45-6.45C64.52,54.51,61.62,51.61,58.06,51.61z
	 M58.06,61.29c-1.78,0-3.23-1.45-3.23-3.23c0-1.78,1.45-3.23,3.23-3.23c1.78,0,3.23,1.45,3.23,3.23
	C61.29,59.84,59.84,61.29,58.06,61.29z M48.39,45.16c0-3.56-2.89-6.45-6.45-6.45c-3.56,0-6.45,2.89-6.45,6.45
	c0,3.56,2.89,6.45,6.45,6.45C45.49,51.61,48.39,48.72,48.39,45.16z M38.71,45.16c0-1.78,1.45-3.23,3.23-3.23
	c1.78,0,3.23,1.45,3.23,3.23c0,1.78-1.45,3.23-3.23,3.23C40.16,48.39,38.71,46.94,38.71,45.16z"/>
</svg>
