<?xml version="1.0" encoding="utf-8"?>
<!-- Generator: Adobe Illustrator 23.0.1, SVG Export Plug-In . SVG Version: 6.00 Build 0)  -->
<svg version="1.1" id="Layer_1" xmlns="http://www.w3.org/2000/svg" xmlns:xlink="http://www.w3.org/1999/xlink" x="0px" y="0px"
	 viewBox="0 0 100 100" style="enable-background:new 0 0 100 100;" xml:space="preserve">
<path d="M53.33,63.33h3.33v3.33h-3.33V63.33z M60,66.67h3.33V70H60V66.67z M51.67,81.67c-3.68,0-6.67,2.62-6.67,5.83
	s2.99,5.83,6.67,5.83s6.67-2.62,6.67-5.83S55.34,81.67,51.67,81.67z M51.67,90c-1.81,0-3.33-1.15-3.33-2.5s1.53-2.5,3.33-2.5
	c1.81,0,3.33,1.15,3.33,2.5S53.47,90,51.67,90z M73.33,8.33c-0.27,0-26.67,0.18-26.67,6.67v6.67c0,0.38,0.1,0.74,0.27,1.08
	l2.15,34.29c-3.22,0.27-6.29,0.68-9.09,1.25V50V40v-8.33c0-0.24-0.05-0.47-0.15-0.69l-7.46-16.41c0.59-0.82,0.94-1.82,0.94-2.9V5
	c0-2.76-2.24-5-5-5H11.67c-2.76,0-5,2.24-5,5v6.67c0,1.08,0.36,2.08,0.94,2.9L0.15,30.98C0.05,31.19,0,31.43,0,31.67V40v10v35
	c0,6.43,5.23,11.67,11.67,11.67h16.67c1.31,0,2.58-0.22,3.81-0.65c6,2.72,16.11,3.99,26.19,3.99c14.99,0,30.09-2.81,31.53-9.03
	C89.94,90.65,90,90.33,90,90V78.57v-0.24h5c0.88,0,1.61-0.69,1.66-1.57l3.16-54.27c0.1-0.27,0.17-0.54,0.17-0.83V15
	C100,8.51,73.6,8.33,73.33,8.33z M96.67,18.46v2.94c-0.04,0.05-0.09,0.09-0.15,0.14c-0.05,0.04-0.09,0.08-0.15,0.11
	c-0.09,0.06-0.2,0.12-0.31,0.18c-0.07,0.04-0.14,0.08-0.22,0.12c-0.13,0.06-0.28,0.12-0.43,0.18c-0.1,0.04-0.19,0.08-0.3,0.12
	c-0.16,0.06-0.35,0.12-0.53,0.19c-0.12,0.04-0.24,0.08-0.38,0.12c-0.2,0.06-0.41,0.12-0.63,0.18c-0.15,0.04-0.29,0.08-0.45,0.13
	c-0.22,0.06-0.47,0.12-0.71,0.18c-0.17,0.04-0.34,0.08-0.52,0.13c-0.25,0.06-0.52,0.11-0.78,0.17c-0.2,0.04-0.39,0.08-0.6,0.13
	c-0.27,0.05-0.56,0.1-0.84,0.16c-0.22,0.04-0.44,0.08-0.67,0.12c-0.29,0.05-0.59,0.1-0.89,0.15c-0.25,0.04-0.49,0.08-0.75,0.12
	c-0.31,0.05-0.63,0.09-0.94,0.13c-0.27,0.04-0.53,0.07-0.81,0.11c-0.33,0.04-0.68,0.08-1.02,0.12c-0.28,0.03-0.54,0.07-0.82,0.09
	c-0.36,0.04-0.73,0.07-1.1,0.11c-0.28,0.03-0.56,0.06-0.85,0.08c-0.37,0.03-0.74,0.06-1.12,0.08c-0.3,0.02-0.6,0.05-0.91,0.07
	c-0.4,0.03-0.82,0.05-1.24,0.07c-0.28,0.02-0.56,0.03-0.85,0.05c-0.49,0.02-0.98,0.03-1.47,0.05c-0.23,0.01-0.45,0.02-0.68,0.02
	C74.81,24.99,74.07,25,73.33,25c-0.74,0-1.48-0.01-2.21-0.02c-0.19,0-0.39-0.01-0.58-0.02c-0.53-0.02-1.06-0.03-1.58-0.05
	c-0.2-0.01-0.39-0.02-0.59-0.03c-0.51-0.02-1.02-0.05-1.52-0.08c-0.17-0.01-0.33-0.02-0.5-0.04c-0.52-0.04-1.04-0.07-1.55-0.12
	c-0.12-0.01-0.24-0.02-0.36-0.03c-0.55-0.05-1.09-0.1-1.62-0.16c-0.07-0.01-0.14-0.02-0.21-0.02c-0.57-0.06-1.13-0.13-1.67-0.19
	c-0.04-0.01-0.07-0.01-0.11-0.02c-5.87-0.76-10.05-1.92-10.86-2.84v-2.92c0.04,0.02,0.09,0.03,0.14,0.05
	c0.35,0.15,0.73,0.29,1.12,0.43c0.1,0.03,0.2,0.07,0.31,0.11c0.44,0.15,0.9,0.28,1.38,0.41c0.1,0.03,0.21,0.05,0.31,0.08
	c0.43,0.11,0.86,0.22,1.31,0.32c0.1,0.02,0.21,0.05,0.31,0.07c0.52,0.11,1.05,0.22,1.58,0.31c0.13,0.02,0.27,0.05,0.4,0.07
	c0.49,0.08,0.97,0.16,1.47,0.24c0.08,0.01,0.16,0.03,0.25,0.04c0.56,0.08,1.11,0.16,1.68,0.23c0.15,0.02,0.29,0.03,0.44,0.05
	c0.55,0.06,1.09,0.13,1.63,0.18c0.03,0,0.07,0.01,0.1,0.01c0.55,0.06,1.09,0.1,1.62,0.15c0.14,0.01,0.27,0.02,0.4,0.03
	c0.53,0.04,1.04,0.08,1.54,0.12c0.08,0.01,0.16,0.01,0.24,0.02c0.45,0.03,0.88,0.06,1.31,0.08c0.11,0.01,0.22,0.01,0.32,0.02
	c0.46,0.02,0.9,0.05,1.32,0.07c0.09,0,0.17,0.01,0.26,0.01c0.36,0.02,0.71,0.03,1.03,0.04c0.06,0,0.13,0.01,0.19,0.01
	c0.36,0.01,0.68,0.02,0.97,0.03c0.07,0,0.13,0,0.2,0.01c0.26,0.01,0.5,0.01,0.7,0.02c0.01,0,0.02,0,0.03,0
	c0.21,0,0.37,0.01,0.49,0.01c0.06,0,0.08,0,0.12,0c0.09,0,0.15,0,0.16,0s0.07,0,0.15,0c0.04,0,0.06,0,0.12,0
	c0.13,0,0.28,0,0.49-0.01c0.01,0,0.02,0,0.03,0c0.2,0,0.44-0.01,0.7-0.02c0.07,0,0.13,0,0.2-0.01c0.29-0.01,0.62-0.02,0.97-0.03
	c0.06,0,0.13-0.01,0.19-0.01c0.32-0.01,0.67-0.03,1.03-0.04c0.09,0,0.17-0.01,0.26-0.01c0.42-0.02,0.86-0.04,1.32-0.07
	c0.11-0.01,0.21-0.01,0.32-0.02c0.42-0.03,0.85-0.05,1.31-0.08c0.08-0.01,0.16-0.01,0.24-0.02c0.5-0.03,1.02-0.08,1.54-0.12
	c0.13-0.01,0.27-0.02,0.4-0.03c0.53-0.05,1.07-0.1,1.62-0.15c0.03,0,0.07-0.01,0.1-0.01c0.54-0.06,1.09-0.12,1.63-0.18
	c0.15-0.02,0.29-0.03,0.44-0.05c0.56-0.07,1.12-0.14,1.67-0.23c0.08-0.01,0.17-0.03,0.25-0.04c0.49-0.07,0.98-0.15,1.46-0.24
	c0.14-0.02,0.27-0.05,0.41-0.07c0.54-0.1,1.07-0.2,1.58-0.31c0.11-0.02,0.21-0.05,0.31-0.07c0.45-0.1,0.89-0.2,1.31-0.32
	c0.1-0.03,0.21-0.05,0.31-0.08c0.48-0.13,0.94-0.27,1.38-0.41c0.1-0.03,0.21-0.07,0.31-0.11c0.39-0.14,0.77-0.28,1.12-0.43
	C96.57,18.49,96.62,18.48,96.67,18.46z M96.35,15c-0.01,0.01-0.01,0.01-0.02,0.01c-0.03,0.02-0.07,0.04-0.11,0.06
	c-0.13,0.08-0.27,0.15-0.44,0.23c-0.06,0.03-0.13,0.05-0.19,0.08c-0.17,0.07-0.33,0.14-0.53,0.22c-0.08,0.03-0.18,0.06-0.26,0.09
	c-0.2,0.07-0.4,0.14-0.62,0.21c-0.11,0.03-0.22,0.06-0.33,0.1c-0.23,0.07-0.46,0.13-0.71,0.2c-0.13,0.03-0.26,0.07-0.4,0.1
	c-0.25,0.06-0.51,0.13-0.79,0.19c-0.15,0.03-0.31,0.07-0.46,0.1c-0.28,0.06-0.57,0.12-0.86,0.18c-0.17,0.03-0.34,0.07-0.52,0.1
	c-0.3,0.06-0.61,0.11-0.93,0.17c-0.19,0.03-0.38,0.07-0.58,0.1c-0.32,0.05-0.65,0.1-0.99,0.16c-0.21,0.03-0.42,0.06-0.64,0.09
	c-0.34,0.05-0.68,0.09-1.03,0.14c-0.23,0.03-0.46,0.06-0.69,0.09c-0.35,0.04-0.71,0.08-1.07,0.12c-0.25,0.03-0.49,0.06-0.74,0.08
	c-0.37,0.04-0.74,0.07-1.12,0.1c-0.26,0.02-0.52,0.05-0.78,0.07c-0.39,0.03-0.78,0.06-1.17,0.09c-0.26,0.02-0.53,0.04-0.79,0.06
	c-0.41,0.02-0.83,0.05-1.26,0.07c-0.26,0.01-0.51,0.03-0.78,0.04c-0.46,0.02-0.94,0.03-1.41,0.05c-0.22,0.01-0.45,0.01-0.67,0.02
	c-0.7,0.02-1.41,0.02-2.13,0.02s-1.43-0.01-2.13-0.02c-0.23,0-0.45-0.01-0.67-0.02c-0.47-0.01-0.95-0.03-1.41-0.05
	c-0.26-0.01-0.52-0.03-0.78-0.04c-0.42-0.02-0.84-0.04-1.26-0.07c-0.27-0.02-0.53-0.04-0.79-0.06c-0.39-0.03-0.79-0.06-1.17-0.09
	c-0.26-0.02-0.52-0.05-0.78-0.07c-0.37-0.03-0.75-0.07-1.12-0.1c-0.25-0.03-0.49-0.05-0.74-0.08c-0.36-0.04-0.72-0.08-1.08-0.12
	c-0.23-0.03-0.47-0.06-0.69-0.09c-0.35-0.05-0.69-0.09-1.03-0.14c-0.22-0.03-0.43-0.06-0.64-0.09c-0.33-0.05-0.66-0.1-0.99-0.16
	c-0.2-0.03-0.39-0.06-0.58-0.1c-0.32-0.06-0.63-0.11-0.93-0.17c-0.17-0.03-0.35-0.07-0.52-0.1c-0.3-0.06-0.58-0.12-0.86-0.18
	c-0.16-0.03-0.31-0.07-0.46-0.1c-0.27-0.06-0.53-0.13-0.79-0.19c-0.13-0.03-0.27-0.07-0.4-0.1c-0.25-0.07-0.48-0.13-0.71-0.2
	c-0.11-0.03-0.23-0.06-0.33-0.1c-0.22-0.07-0.43-0.14-0.62-0.21c-0.09-0.03-0.18-0.06-0.26-0.09c-0.2-0.07-0.36-0.14-0.53-0.21
	c-0.06-0.03-0.14-0.06-0.19-0.08c-0.17-0.08-0.31-0.16-0.44-0.23c-0.03-0.02-0.07-0.04-0.1-0.06C50.33,15.01,50.33,15,50.32,15
	c2.27-1.45,11.93-3.33,23.01-3.33S94.08,13.54,96.35,15z M50.97,60.25c2.46-0.16,4.94-0.25,7.36-0.25c1.15,0,2.26,0.02,3.34,0.05
	c0.03,3.66,3.75,6.62,8.33,6.62c3.72,0,6.84-1.97,7.91-4.67c5.83,1.44,8.76,3.34,8.76,4.67c0,2.39-9.47,6.67-28.33,6.67
	c-1.27,0-2.48-0.02-3.66-0.06c0.21-0.52,0.33-1.06,0.33-1.61c0-3.8-5.02-6.67-11.67-6.67c-5.03,0-9.14,1.65-10.83,4.13
	c-0.88-0.47-1.54-0.93-1.95-1.38c-0.07-0.13-0.12-0.26-0.22-0.38l-0.05,0.04c0,0-0.01-0.01-0.01-0.01l0.04-0.04
	c-0.04-0.05-0.1-0.08-0.15-0.13c-0.02-0.07-0.02-0.14-0.05-0.21c-0.01-0.02-0.02-0.04-0.04-0.07c-0.01-0.02-0.02-0.04-0.03-0.06
	C30.03,66.81,30,66.74,30,66.67c0-0.09,0.04-0.18,0.06-0.28c0.4-0.99,2.84-2.73,8.67-4.17c0.26-0.07,0.48-0.21,0.68-0.38
	c3.08-0.72,6.93-1.29,11.53-1.6C50.96,60.24,50.96,60.25,50.97,60.25z M72.06,60.89c0.16,0.02,0.32,0.04,0.47,0.07
	c0.55,0.08,1.09,0.17,1.63,0.26c0.14,0.02,0.29,0.05,0.43,0.08c-0.78,1.18-2.56,2.03-4.59,2.03c-2.61,0-4.83-1.41-4.99-3.13
	C67.5,60.35,69.86,60.59,72.06,60.89z M81.67,85c0-2.76,2.24-5,5-5v10C83.91,90,81.67,87.76,81.67,85z M50.69,73.07
	c-0.58-0.04-1.17-0.08-1.72-0.13c-0.27-0.02-0.53-0.05-0.8-0.08c-0.6-0.06-1.19-0.12-1.76-0.19c-0.25-0.03-0.5-0.06-0.74-0.09
	c-1.65-0.21-3.17-0.45-4.56-0.73c-0.03,0-0.06-0.01-0.08-0.02c-2.06-0.41-3.83-0.88-5.31-1.38c1.22-1.09,3.94-2.13,7.61-2.13
	c5.09,0,8.33,1.97,8.33,3.33C51.67,72.1,51.32,72.6,50.69,73.07z M30,78.33c0.92,0,1.67,0.75,1.67,1.67s-0.75,1.67-1.67,1.67V78.33z
	 M3.33,41.67h8.02c0.59,0,1.15-0.32,1.44-0.83c1.49-2.57,4.25-4.17,7.21-4.17s5.72,1.6,7.21,4.17c0.3,0.51,0.85,0.83,1.44,0.83h8.02
	v6.67h-8.02c-0.59,0-1.15,0.32-1.44,0.83c-1.49,2.57-4.25,4.17-7.21,4.17s-5.72-1.6-7.21-4.17c-0.3-0.51-0.85-0.83-1.44-0.83H3.33
	V41.67z M10,5c0-0.92,0.75-1.67,1.67-1.67h16.67C29.25,3.33,30,4.08,30,5v6.67c0,0.6-0.33,1.09-0.8,1.39
	c-0.22,0.14-0.49,0.28-0.86,0.28H11.67c-0.37,0-0.65-0.14-0.87-0.28c-0.47-0.3-0.8-0.79-0.8-1.39V5z M10.39,16.5
	c0.03,0.01,0.06,0.01,0.1,0.01c0.38,0.09,0.77,0.15,1.18,0.15h16.67c0.41,0,0.8-0.06,1.18-0.16c0.03-0.01,0.07,0,0.1-0.01
	l7.06,15.53v6.31h-7.1c-2.17-3.11-5.75-5-9.56-5s-7.39,1.89-9.56,5h-7.1v-6.31L10.39,16.5z M3.33,85V51.67h7.1
	c2.17,3.11,5.75,5,9.56,5s7.4-1.89,9.56-5h7.1v7.39c-5.31,1.45-9.05,3.59-9.83,6.47c-0.11,0.37-0.17,0.75-0.17,1.14v10v6.67V90
	c0,0.35,0.06,0.69,0.15,1.03c0.05,0.21,0.13,0.41,0.21,0.62c0.02,0.05,0.04,0.1,0.07,0.15c0.24,0.54,0.57,1.06,1.02,1.54H11.67
	C7.07,93.33,3.33,89.6,3.33,85z M33.72,93.04c-0.15-0.18-0.33-0.34-0.56-0.44c-1.99-0.92-2.88-1.78-3.1-2.33
	C30.04,90.17,30,90.08,30,90v-5c2.76,0,5-2.24,5-5s-2.24-5-5-5v-3.45c0.2,0.13,0.42,0.24,0.63,0.37c0.11,0.06,0.21,0.12,0.32,0.18
	c0.47,0.25,0.98,0.5,1.51,0.73c0.1,0.04,0.22,0.08,0.32,0.13c0.46,0.19,0.93,0.37,1.43,0.55c0.17,0.06,0.33,0.12,0.5,0.17
	c0.56,0.19,1.13,0.36,1.73,0.53c0.07,0.02,0.13,0.04,0.19,0.06c0.67,0.18,1.38,0.35,2.1,0.52c0.18,0.04,0.36,0.08,0.54,0.12
	c0.58,0.13,1.17,0.24,1.78,0.35c0.18,0.03,0.37,0.07,0.56,0.1c0.77,0.14,1.56,0.26,2.36,0.37c0.09,0.01,0.17,0.02,0.26,0.03
	c0.66,0.09,1.34,0.18,2.02,0.25c0.11,0.01,0.22,0.03,0.34,0.04c0.18,0.02,0.36,0.04,0.54,0.06c0.42,0.04,0.84,0.08,1.27,0.12
	c0.17,0.01,0.33,0.03,0.5,0.05l0.42,0.03c0.01,0,0.03,0,0.04,0c0.11,0.01,0.22,0.02,0.33,0.03c0.85,0.07,1.71,0.12,2.58,0.17
	c0.21,0.01,0.42,0.02,0.63,0.03c0.69,0.03,1.37,0.06,2.06,0.08c0.25,0.01,0.49,0.01,0.74,0.02c0.88,0.02,1.76,0.03,2.65,0.03
	c0.88,0,1.76-0.01,2.64-0.03c0.25,0,0.49-0.01,0.74-0.02c0.69-0.02,1.38-0.04,2.06-0.08c0.21-0.01,0.42-0.02,0.63-0.03
	c0.87-0.04,1.73-0.1,2.58-0.17c0.16-0.01,0.32-0.03,0.48-0.04c0.71-0.06,1.4-0.12,2.09-0.19c0.23-0.02,0.46-0.05,0.69-0.07
	c0.74-0.08,1.48-0.17,2.2-0.27c0.09-0.01,0.17-0.02,0.26-0.03c0.8-0.11,1.59-0.24,2.36-0.37c0.19-0.03,0.37-0.07,0.56-0.1
	c0.61-0.11,1.2-0.23,1.78-0.35c0.18-0.04,0.36-0.08,0.54-0.12c0.72-0.16,1.42-0.33,2.1-0.52c0.07-0.02,0.13-0.04,0.19-0.06
	c0.6-0.17,1.18-0.35,1.74-0.53c0.17-0.06,0.33-0.11,0.5-0.17c0.5-0.18,0.97-0.36,1.43-0.55c0.1-0.04,0.22-0.08,0.32-0.13
	c0.54-0.23,1.04-0.48,1.51-0.73c0.11-0.06,0.21-0.12,0.32-0.18c0.21-0.12,0.43-0.24,0.63-0.36v5.11c-4.6,0-8.33,3.74-8.33,8.33
	c0,3.51,2.19,6.51,5.28,7.74c-4.16,2-12.58,3.93-25.28,3.93C46.28,96.67,38.08,94.92,33.72,93.04z M93.43,75H90v-8.33
	c0-6.91-15.9-10-31.67-10c-1.98,0-3.96,0.05-5.91,0.15l-1.98-31.48c5.48,2.14,15.96,2.99,22.78,3c0.06,0,0.1,0,0.11,0s0.05,0,0.11,0
	c6.93-0.01,17.42-0.87,22.88-3.04L93.43,75z M73.33,38.56c-2.28-4.1-6.65-6.89-11.67-6.89H60c-0.92,0-1.67,0.75-1.67,1.67V35
	c0,7.35,5.98,13.33,13.33,13.33v5H75v-5c7.35,0,13.33-5.98,13.33-13.33v-1.67c0-0.92-0.75-1.67-1.67-1.67H85
	C79.98,31.67,75.61,34.46,73.33,38.56z M61.67,35c5.51,0,10,4.49,10,10C66.15,45,61.67,40.51,61.67,35z M85,35c0,5.51-4.49,10-10,10
	C75,39.49,79.49,35,85,35z"/>
</svg>
