<?xml version="1.0" encoding="utf-8"?>
<!-- Generator: Adobe Illustrator 23.0.1, SVG Export Plug-In . SVG Version: 6.00 Build 0)  -->
<svg version="1.1" id="Layer_1" xmlns="http://www.w3.org/2000/svg" xmlns:xlink="http://www.w3.org/1999/xlink" x="0px" y="0px"
	 viewBox="0 0 100 100" style="enable-background:new 0 0 100 100;" xml:space="preserve">
<path d="M33.96,59.3c0.1-0.68-0.36-1.32-1.04-1.42l-1.53-0.23c-0.69-0.1-1.32,0.36-1.42,1.04c-0.1,0.68,0.36,1.32,1.04,1.42
	l1.53,0.23c0.06,0.01,0.13,0.01,0.19,0.01C33.33,60.36,33.87,59.92,33.96,59.3z M70.74,64.1c0.61,0,1.14-0.44,1.23-1.06
	c0.1-0.68-0.36-1.32-1.04-1.42l-1.53-0.23c-0.68-0.11-1.32,0.36-1.42,1.04c-0.1,0.68,0.36,1.32,1.04,1.42l1.53,0.23
	C70.61,64.09,70.68,64.1,70.74,64.1z M34.74,63.3c-0.44-0.53-1.23-0.6-1.76-0.16c-0.53,0.44-0.6,1.23-0.16,1.76l1.01,1.21
	c0.25,0.3,0.6,0.45,0.96,0.45c0.28,0,0.57-0.09,0.8-0.29c0.53-0.44,0.6-1.23,0.16-1.76L34.74,63.3z M85.38,60.59
	c-0.53,0.44-0.6,1.23-0.16,1.76l1.01,1.21c0.25,0.3,0.6,0.45,0.96,0.45c0.28,0,0.57-0.09,0.8-0.29c0.53-0.44,0.6-1.23,0.16-1.76
	l-1.01-1.21C86.69,60.22,85.91,60.15,85.38,60.59z M19.5,57.88c0.53-0.44,0.6-1.23,0.16-1.76l-1.01-1.21
	c-0.44-0.53-1.23-0.6-1.76-0.16c-0.53,0.44-0.6,1.23-0.16,1.76l1.01,1.21c0.25,0.3,0.6,0.45,0.96,0.45
	C18.98,58.17,19.27,58.08,19.5,57.88z M43.79,65.5c0.25,0.3,0.6,0.45,0.96,0.45c0.28,0,0.56-0.09,0.8-0.29
	c0.53-0.44,0.6-1.23,0.16-1.76l-1.01-1.21c-0.44-0.53-1.23-0.6-1.76-0.16c-0.53,0.44-0.6,1.23-0.16,1.76L43.79,65.5z M19.35,65.89
	c0.05,0.01,0.09,0.01,0.14,0.01c0.63,0,1.17-0.47,1.24-1.11l0.18-1.6c0.08-0.68-0.41-1.3-1.1-1.38c-0.68-0.09-1.3,0.41-1.38,1.1
	l-0.18,1.6C18.17,65.19,18.67,65.81,19.35,65.89z M26.58,62.96c0.22,0,0.45-0.06,0.65-0.18c0.59-0.36,0.78-1.13,0.42-1.71
	l-0.84-1.37c-0.36-0.59-1.13-0.78-1.71-0.42c-0.59,0.36-0.78,1.13-0.42,1.71l0.84,1.37C25.75,62.75,26.16,62.96,26.58,62.96z
	 M65.25,55.17l0.18-1.6c0.08-0.69-0.41-1.3-1.1-1.38c-0.71-0.09-1.3,0.41-1.38,1.1l-0.18,1.6c-0.08,0.69,0.41,1.3,1.1,1.38
	c0.05,0.01,0.1,0.01,0.14,0.01C64.64,56.28,65.18,55.81,65.25,55.17z M71.79,57.76c0.05,0.01,0.09,0.01,0.14,0.01
	c0.63,0,1.17-0.47,1.24-1.11l0.18-1.6c0.08-0.68-0.41-1.3-1.1-1.38c-0.68-0.09-1.3,0.41-1.38,1.1l-0.18,1.6
	C70.61,57.06,71.1,57.68,71.79,57.76z M79.28,60.06c0.64-0.26,0.95-0.98,0.7-1.62s-0.98-0.95-1.62-0.7l-1.44,0.58
	c-0.64,0.26-0.95,0.98-0.7,1.62c0.19,0.49,0.66,0.79,1.16,0.79c0.15,0,0.31-0.03,0.46-0.09L79.28,60.06z M59.65,61l-1.44,0.58
	c-0.64,0.26-0.95,0.98-0.7,1.62c0.19,0.49,0.66,0.79,1.16,0.79c0.15,0,0.31-0.03,0.46-0.09l1.44-0.58c0.64-0.26,0.95-0.98,0.7-1.62
	C61.02,61.05,60.29,60.74,59.65,61z M26.16,54.96c0.15,0,0.31-0.03,0.46-0.09l1.44-0.58c0.64-0.26,0.95-0.98,0.7-1.62
	c-0.26-0.64-0.98-0.95-1.62-0.7l-1.44,0.58c-0.64,0.26-0.95,0.98-0.7,1.62C25.2,54.67,25.67,54.96,26.16,54.96z M52.52,61.65
	c0.06,0.01,0.13,0.01,0.19,0.01c0.61,0,1.14-0.44,1.23-1.06c0.1-0.68-0.36-1.32-1.05-1.42l-1.53-0.23
	c-0.68-0.11-1.32,0.36-1.42,1.05c-0.1,0.68,0.36,1.32,1.05,1.42L52.52,61.65z M57.95,55.75c0.1-0.68-0.36-1.32-1.05-1.42l-1.53-0.23
	c-0.69-0.11-1.32,0.36-1.42,1.05c-0.1,0.68,0.36,1.32,1.05,1.42l1.53,0.23c0.06,0.01,0.13,0.01,0.19,0.01
	C57.33,56.81,57.86,56.37,57.95,55.75z M85.99,55.58c0.06,0.01,0.13,0.01,0.19,0.01c0.61,0,1.14-0.44,1.23-1.06
	c0.1-0.68-0.36-1.32-1.05-1.42l-1.53-0.23c-0.68-0.11-1.32,0.36-1.42,1.05c-0.1,0.68,0.36,1.32,1.05,1.42L85.99,55.58z M11.19,62.02
	l1.53,0.23c0.06,0.01,0.13,0.01,0.19,0.01c0.61,0,1.14-0.44,1.23-1.06c0.1-0.68-0.36-1.32-1.04-1.42l-1.53-0.23
	c-0.69-0.1-1.32,0.36-1.42,1.04C10.04,61.28,10.51,61.92,11.19,62.02z M45.58,57.57c0.35,0,0.7-0.15,0.94-0.43l1.03-1.19
	c0.45-0.52,0.39-1.31-0.13-1.76c-0.52-0.45-1.31-0.39-1.76,0.13l-1.03,1.19c-0.45,0.52-0.39,1.31,0.13,1.76
	C44.99,57.47,45.28,57.57,45.58,57.57z M39.52,56.25c0.25,0.29,0.6,0.45,0.96,0.45c0.28,0,0.57-0.09,0.8-0.29
	c0.53-0.44,0.6-1.23,0.16-1.76l-1.01-1.21c-0.44-0.53-1.23-0.6-1.76-0.16c-0.53,0.44-0.6,1.23-0.16,1.76L39.52,56.25z M67.56,71.75
	l-1.53-0.23c-0.68-0.1-1.32,0.36-1.42,1.04c-0.1,0.68,0.36,1.32,1.04,1.42l1.53,0.23c0.06,0.01,0.13,0.01,0.19,0.01
	c0.61,0,1.14-0.44,1.23-1.06C68.71,72.49,68.24,71.85,67.56,71.75z M29.55,68.01l-1.53-0.23c-0.69-0.11-1.32,0.36-1.42,1.05
	c-0.1,0.68,0.36,1.32,1.05,1.42l1.53,0.23c0.06,0.01,0.13,0.01,0.19,0.01c0.61,0,1.14-0.44,1.23-1.06
	C30.7,68.75,30.23,68.11,29.55,68.01z M73.15,67.4c-0.44-0.53-1.23-0.6-1.76-0.16c-0.53,0.44-0.6,1.23-0.16,1.76l1.01,1.21
	c0.25,0.3,0.6,0.45,0.96,0.45c0.28,0,0.57-0.09,0.8-0.29c0.53-0.44,0.6-1.23,0.16-1.76L73.15,67.4z M12.39,71.56
	c0.28,0,0.57-0.09,0.8-0.29c0.53-0.44,0.6-1.23,0.16-1.76l-1.01-1.21c-0.44-0.53-1.23-0.6-1.76-0.16c-0.53,0.44-0.6,1.23-0.16,1.76
	l1.01,1.21C11.68,71.41,12.03,71.56,12.39,71.56z M80.83,74.13c-0.44-0.53-1.23-0.6-1.76-0.16c-0.53,0.44-0.6,1.23-0.16,1.76
	l1.01,1.21c0.25,0.29,0.6,0.45,0.96,0.45c0.28,0,0.57-0.09,0.8-0.29c0.53-0.44,0.6-1.23,0.16-1.76L80.83,74.13z M59.37,67.4
	c-0.44-0.53-1.23-0.6-1.76-0.16c-0.53,0.44-0.6,1.23-0.16,1.76l1.01,1.22c0.25,0.3,0.6,0.45,0.96,0.45c0.28,0,0.56-0.09,0.8-0.29
	c0.53-0.44,0.6-1.23,0.16-1.76L59.37,67.4z M78.89,70.06c0.63,0,1.17-0.47,1.24-1.11l0.18-1.6c0.08-0.68-0.41-1.3-1.1-1.38
	c-0.68-0.09-1.3,0.41-1.38,1.1l-0.18,1.6c-0.08,0.68,0.41,1.3,1.1,1.38C78.8,70.05,78.84,70.06,78.89,70.06z M34.7,75.59
	c-0.68-0.09-1.3,0.41-1.38,1.1l-0.18,1.6c-0.08,0.68,0.41,1.3,1.1,1.38c0.05,0.01,0.09,0.01,0.14,0.01c0.63,0,1.17-0.47,1.24-1.11
	l0.18-1.6C35.87,76.29,35.38,75.67,34.7,75.59z M26.78,74.1c-0.68-0.09-1.3,0.41-1.38,1.1l-0.18,1.6c-0.08,0.68,0.41,1.3,1.1,1.38
	c0.05,0.01,0.09,0.01,0.14,0.01c0.63,0,1.17-0.47,1.24-1.11l0.18-1.6C27.96,74.8,27.47,74.18,26.78,74.1z M20.73,71.22l-1.44,0.58
	c-0.64,0.26-0.95,0.98-0.7,1.62c0.19,0.49,0.66,0.79,1.16,0.79c0.15,0,0.31-0.03,0.46-0.09l1.44-0.58c0.64-0.26,0.95-0.98,0.7-1.62
	C22.1,71.28,21.37,70.97,20.73,71.22z M41.05,68.67c-0.26-0.64-0.98-0.95-1.62-0.7l-1.44,0.58c-0.64,0.26-0.95,0.98-0.7,1.62
	c0.19,0.49,0.66,0.79,1.16,0.79c0.15,0,0.31-0.03,0.46-0.09l1.44-0.58C41,70.03,41.31,69.31,41.05,68.67z M71.94,76.99l-1.44,0.58
	c-0.64,0.26-0.95,0.98-0.7,1.62c0.19,0.49,0.66,0.79,1.16,0.79c0.15,0,0.31-0.03,0.46-0.09l1.44-0.58c0.64-0.26,0.95-0.98,0.7-1.62
	C73.31,77.04,72.58,76.73,71.94,76.99z M47.58,70.44l-1.53-0.23c-0.68-0.11-1.32,0.36-1.42,1.04c-0.1,0.68,0.36,1.32,1.04,1.42
	l1.53,0.23c0.06,0.01,0.13,0.01,0.19,0.01c0.61,0,1.14-0.44,1.23-1.06C48.73,71.18,48.26,70.55,47.58,70.44z M43.56,75.3l-1.53-0.23
	c-0.68-0.11-1.32,0.36-1.42,1.04c-0.1,0.68,0.36,1.32,1.04,1.42l1.53,0.23c0.06,0.01,0.13,0.01,0.19,0.01
	c0.61,0,1.14-0.44,1.23-1.06C44.71,76.04,44.24,75.4,43.56,75.3z M14.11,76.51l-1.53-0.23c-0.68-0.11-1.32,0.36-1.42,1.04
	c-0.1,0.68,0.36,1.32,1.04,1.42l1.53,0.23c0.06,0.01,0.13,0.01,0.19,0.01c0.61,0,1.14-0.44,1.23-1.06
	C15.26,77.25,14.79,76.62,14.11,76.51z M87.19,72.32c0.61,0,1.14-0.44,1.23-1.06c0.1-0.68-0.36-1.32-1.04-1.42l-1.53-0.23
	c-0.68-0.1-1.32,0.36-1.42,1.04c-0.1,0.68,0.36,1.32,1.04,1.42L87,72.3C87.06,72.31,87.13,72.32,87.19,72.32z M87.38,76.4
	c-0.68-0.11-1.32,0.36-1.42,1.04c-0.1,0.68,0.36,1.32,1.04,1.42l1.53,0.23c0.06,0.01,0.13,0.01,0.19,0.01
	c0.61,0,1.14-0.44,1.23-1.06c0.1-0.68-0.36-1.32-1.04-1.42L87.38,76.4z M52.05,74.72l-1.03,1.19c-0.45,0.52-0.39,1.31,0.13,1.76
	c0.24,0.2,0.53,0.3,0.82,0.3c0.35,0,0.7-0.15,0.94-0.43l1.03-1.19c0.45-0.52,0.39-1.31-0.13-1.76C53.29,74.15,52.5,74.2,52.05,74.72
	z M59.04,75.62c-0.44-0.53-1.23-0.6-1.76-0.16c-0.53,0.44-0.6,1.23-0.16,1.76l1.01,1.21c0.25,0.3,0.6,0.45,0.96,0.45
	c0.28,0,0.57-0.09,0.8-0.29c0.53-0.44,0.6-1.23,0.16-1.76L59.04,75.62z M98.75,27.01H77.7v-9.39c3.08-0.71,5.39-3.46,5.39-6.76
	c0-3.44-5-9.25-6-10.38c-0.48-0.53-1.39-0.53-1.87,0c-1,1.13-6,6.94-6,10.38c0,3.5,2.61,6.4,5.99,6.86v9.28H60.21v-9.39
	c3.08-0.71,5.39-3.46,5.39-6.76c0-3.44-5-9.25-6-10.38c-0.48-0.53-1.39-0.53-1.87,0c-1,1.13-6,6.94-6,10.38
	c0,3.5,2.61,6.4,5.99,6.86v9.28H42.72v-9.39c3.08-0.71,5.39-3.46,5.39-6.76c0-3.44-5-9.25-6-10.38c-0.48-0.53-1.39-0.53-1.87,0
	c-1,1.13-6,6.94-6,10.38c0,3.5,2.61,6.4,5.99,6.86v9.28H25.24v-9.39c3.08-0.71,5.39-3.46,5.39-6.76c0-3.44-5-9.25-6-10.38
	c-0.48-0.53-1.39-0.53-1.87,0c-1,1.13-6,6.94-6,10.38c0,3.5,2.61,6.4,5.99,6.86v9.28H1.41c-0.69,0-1.25,0.56-1.25,1.25v11.1
	c0,0.08,0.01,0.16,0.02,0.23c0.08,3.8,2.1,7.12,5.1,9.03v32.67H4.42C1.98,81.28,0,83.27,0,85.71v2.52c0,2.1,1.48,3.85,3.44,4.3
	c0.01,0.03,0,0.07,0.01,0.1l2.14,5.95c0.31,0.88,1.41,1.32,3.26,1.32h82.13c1.85,0,2.95-0.45,3.26-1.32l2.14-5.95
	c0.01-0.03,0.01-0.07,0.01-0.1c1.96-0.45,3.44-2.2,3.44-4.3v-2.52c0-2.44-1.98-4.42-4.42-4.42h-0.86V48.82
	c3.25-1.91,5.44-5.43,5.44-9.46v-11.1C100,27.57,99.44,27.01,98.75,27.01z M71.72,10.86c0-1.67,2.44-5.18,4.44-7.62
	c2.08,2.54,4.44,6.03,4.44,7.62c0,2.45-1.99,4.44-4.44,4.44S71.72,13.31,71.72,10.86z M54.23,10.86c0-1.67,2.44-5.18,4.44-7.62
	c2.08,2.54,4.44,6.03,4.44,7.62c0,2.45-1.99,4.44-4.44,4.44C56.22,15.31,54.23,13.31,54.23,10.86z M36.74,10.86
	c0-1.67,2.44-5.18,4.44-7.62c2.08,2.54,4.44,6.03,4.44,7.62c0,2.45-1.99,4.44-4.44,4.44C38.73,15.31,36.74,13.31,36.74,10.86z
	 M19.25,10.86c0-1.67,2.44-5.18,4.44-7.62c2.08,2.54,4.44,6.03,4.44,7.62c0,2.45-1.99,4.44-4.44,4.44S19.25,13.31,19.25,10.86z
	 M90.98,97.42H8.86c-0.47,0-0.84-0.05-1.06-0.1l-1.68-4.67h87.62l-1.68,4.67C91.82,97.37,91.46,97.42,90.98,97.42z M97.35,85.7v2.52
	c0,1.06-0.86,1.93-1.93,1.93h-91c-1.06,0-1.93-0.86-1.93-1.92v-2.52c0-1.06,0.86-1.93,1.93-1.93h91
	C96.48,83.78,97.35,84.64,97.35,85.7z M92.07,81.28H7.78V49.8c1.07,0.35,2.2,0.54,3.38,0.54c4.22,0,7.9-2.4,9.73-5.9
	c1.84,3.5,5.51,5.9,9.73,5.9c4.22,0,7.9-2.4,9.73-5.9c1.84,3.5,5.51,5.9,9.73,5.9s7.9-2.4,9.73-5.9c1.84,3.5,5.51,5.9,9.73,5.9
	c4.22,0,7.9-2.4,9.73-5.9c1.84,3.5,5.51,5.9,9.73,5.9c1.06,0,2.08-0.16,3.05-0.44V81.28z M97.5,39.36c0,4.68-3.81,8.48-8.48,8.48
	s-8.48-3.81-8.48-8.48c0-0.69-0.56-1.25-1.25-1.25c-0.69,0-1.25,0.56-1.25,1.25c0,4.68-3.81,8.48-8.49,8.48
	c-4.68,0-8.48-3.81-8.48-8.48c0-0.69-0.56-1.25-1.25-1.25c-0.69,0-1.25,0.56-1.25,1.25c0,4.68-3.81,8.48-8.48,8.48
	s-8.48-3.81-8.48-8.48c0-0.69-0.56-1.25-1.25-1.25s-1.25,0.56-1.25,1.25c0,4.68-3.81,8.48-8.49,8.48c-4.68,0-8.48-3.81-8.48-8.48
	c0-0.69-0.56-1.25-1.25-1.25s-1.25,0.56-1.25,1.25c0,4.68-3.81,8.48-8.48,8.48s-8.48-3.81-8.48-8.48c0-0.07-0.01-0.15-0.02-0.22
	v-9.63H97.5L97.5,39.36L97.5,39.36z"/>
</svg>
