<?xml version="1.0" encoding="utf-8"?>
<!-- Generator: Adobe Illustrator 23.0.1, SVG Export Plug-In . SVG Version: 6.00 Build 0)  -->
<svg version="1.1" id="Layer_1" xmlns="http://www.w3.org/2000/svg" xmlns:xlink="http://www.w3.org/1999/xlink" x="0px" y="0px"
	 viewBox="0 0 100 100" style="enable-background:new 0 0 100 100;" xml:space="preserve">
<path d="M91.55,27.69c-5.48-6.96-13.91-10.33-23.72-9.49c-5.59,0.42-10.96,1.9-15.71,4.11c0.63-7.48-0.63-18.24-11.38-22.03
	c-5.17-1.79-7.38,5.48-4.11,6.32c6.75,1.79,9.8,7.27,10.65,15.39c-4.64-2-9.8-3.37-15.18-3.79c-9.91-0.74-18.34,2.64-23.72,9.49
	c-7.06,8.96-8.22,22.87-3.27,38.16c7.91,24.35,22.45,36.89,38.9,33.63c2-0.42,4.01-1.05,6.01-2c2,0.95,4.01,1.58,6.01,2
	c1.69,0.32,3.48,0.53,5.17,0.53c14.23,0,26.56-12.33,33.73-34.15C99.88,50.56,98.61,36.65,91.55,27.69z M87.54,63.42
	c-2.42,7.59-11.91,32.15-30.04,28.46c-1.9-0.42-3.79-1.05-5.69-2.11c-0.53-0.32-1.26-0.42-1.9-0.42c-0.63,0-1.26,0.11-1.9,0.42
	c-1.9,1.05-3.79,1.79-5.69,2.11C24.3,95.57,14.81,71.01,12.28,63.42c-4.22-12.75-3.48-24.14,2-31.1c3.9-4.85,9.8-7.17,17.08-6.64
	c6.01,0.42,11.7,2.21,16.44,5.06c1.26,0.74,2.74,0.74,4.01,0c4.74-2.85,10.33-4.64,16.44-5.06c7.38-0.53,13.28,1.69,17.08,6.64
	C91.02,39.39,91.76,50.67,87.54,63.42z M40.74,49.51c-1.69-0.84-5.8-1.69-8.54,4.01c-2.74,5.8-0.95,12.12,0.53,12.86
	c1.58,0.74,7.59-1.9,10.33-7.69C45.8,52.99,42.43,50.35,40.74,49.51z M59.3,49.51c-1.69,0.84-5.06,3.48-2.32,9.17
	c2.74,5.8,8.75,8.43,10.33,7.69c1.58-0.74,3.27-7.06,0.53-12.86C65.09,47.82,60.98,48.77,59.3,49.51z"/>
</svg>
