<?xml version="1.0" encoding="utf-8"?>
<!-- Generator: Adobe Illustrator 23.0.1, SVG Export Plug-In . SVG Version: 6.00 Build 0)  -->
<svg version="1.1" id="Layer_1" xmlns="http://www.w3.org/2000/svg" xmlns:xlink="http://www.w3.org/1999/xlink" x="0px" y="0px"
	 viewBox="0 0 100 32" style="enable-background:new 0 0 100 32;" xml:space="preserve">
<g>
	<path style="fill:#FFFFFF;" d="M30.58,3.06l0.67,6.67c0.03,0.31,0.04,0.55,0.04,0.74c0,0.48-0.2,0.71-0.62,0.71
		c-0.38,0-0.7-0.27-0.96-0.81c-1.2-2.47-2.77-4.48-4.73-6.02c-1.96-1.55-4.21-2.32-6.75-2.32c-3.28,0-5.85,1.37-7.69,4.12
		s-2.77,5.99-2.77,9.73c0,4.17,1.02,7.58,3.07,10.24c2.05,2.66,4.46,3.99,7.23,3.99c1.18,0,2.38-0.27,3.6-0.82
		c1.22-0.54,2-1.13,2.34-1.75c0.34-0.62,0.52-1.51,0.52-2.68c0-2.58-0.1-4.18-0.31-4.82c-0.21-0.64-0.55-1.08-1.03-1.32
		c-0.48-0.24-1.45-0.45-2.91-0.62c-0.57-0.06-0.86-0.28-0.86-0.67c0-0.44,0.27-0.67,0.81-0.67h3.48l10.62-0.23
		c0.48,0,0.71,0.2,0.71,0.6c0,0.23-0.09,0.39-0.28,0.47c-0.18,0.08-0.83,0.24-1.93,0.47c-0.83,0.18-1.36,0.46-1.59,0.83
		c-0.23,0.37-0.41,2.68-0.53,6.93c-0.03,0.95-0.06,1.48-0.09,1.59s-0.94,0.64-2.72,1.56c-1.79,0.93-3.63,1.62-5.52,2.07
		c-1.89,0.45-3.77,0.68-5.65,0.68c-3.16,0-5.98-0.62-8.46-1.86c-2.48-1.24-4.48-2.99-6-5.25C0.76,22.35,0,19.66,0,16.53
		C0,12.11,1.52,8.3,4.57,5.09c3.04-3.21,7.21-4.82,12.5-4.82c1.87,0,3.56,0.23,5.07,0.68c1.51,0.45,3.22,1.1,5.14,1.94
		c0.38,0.17,0.71,0.25,0.99,0.25c0.31,0,0.54-0.22,0.71-0.67c0.22-0.58,0.5-0.87,0.85-0.87C30.24,1.61,30.49,2.09,30.58,3.06z"/>
	<path style="fill:#FFFFFF;" d="M45.16,15.52c0.77-1.55,1.65-2.7,2.64-3.47c0.99-0.77,2.11-1.15,3.33-1.15
		c1.17,0,2.1,0.34,2.79,1.01c0.7,0.67,1.05,1.52,1.05,2.53c0,0.8-0.25,1.48-0.75,2.04c-0.5,0.56-1.11,0.84-1.83,0.84
		c-0.54,0-0.98-0.14-1.33-0.41c-0.35-0.28-0.73-0.77-1.13-1.47c-0.55-1.01-1.03-1.52-1.45-1.52c-0.57,0-1.21,0.57-1.93,1.72
		c-0.72,1.15-1.08,3.37-1.08,6.68c0,4.18,0.14,6.5,0.43,6.97c0.28,0.47,0.91,0.7,1.87,0.7c0.84,0,1.27,0.23,1.27,0.69
		c0,0.43-0.41,0.64-1.24,0.64c-0.46,0-1.13-0.04-2-0.13c-0.8-0.07-1.55-0.11-2.25-0.11c-1.52,0-3.02,0.05-4.51,0.16
		c-0.63,0.05-1,0.07-1.11,0.07c-0.64,0-0.97-0.24-0.97-0.72c0-0.42,0.38-0.65,1.13-0.68c0.74-0.03,1.25-0.2,1.54-0.52
		c0.29-0.32,0.44-1,0.44-2.06l0.09-5.74c0-1.16-0.05-2.61-0.14-4.34s-0.18-2.76-0.25-3.09c-0.08-0.33-0.27-0.62-0.59-0.88
		c-0.31-0.26-0.74-0.41-1.28-0.46c-0.55-0.06-0.9-0.13-1.05-0.22c-0.14-0.08-0.22-0.26-0.22-0.52c0-0.41,0.38-0.63,1.15-0.64
		c1.41-0.02,3.81-0.2,7.2-0.55L45.16,15.52z"/>
	<path style="fill:#FFFFFF;" d="M77.99,20.69c0,2.82-1.05,5.33-3.15,7.52c-2.1,2.19-4.77,3.29-8,3.29c-2.97,0-5.47-0.92-7.49-2.76
		c-2.02-1.84-3.03-4.29-3.03-7.36c0-3.11,1.07-5.63,3.21-7.55c2.14-1.92,4.74-2.89,7.81-2.89c3.11,0,5.67,0.91,7.67,2.72
		C76.99,15.48,77.99,17.82,77.99,20.69z M71.65,22.27c0-2.52-0.42-4.79-1.25-6.83c-0.84-2.03-2.03-3.05-3.6-3.05
		c-1.38,0-2.44,0.71-3.19,2.13c-0.75,1.42-1.13,3.41-1.13,5.97c0,2.79,0.43,5.08,1.28,6.87c0.85,1.79,2.02,2.68,3.51,2.68
		c1.45,0,2.55-0.71,3.29-2.14C71.28,26.48,71.65,24.6,71.65,22.27z"/>
	<path style="fill:#FFFFFF;" d="M81.88,21.36c0-2.88,0.99-5.35,2.97-7.4c1.98-2.05,4.46-3.08,7.45-3.08c1.96,0,3.69,0.47,5.18,1.41
		c1.5,0.94,2.24,2.06,2.24,3.34c0,0.77-0.23,1.37-0.68,1.81c-0.45,0.44-1.02,0.65-1.71,0.65c-1.32,0-2.26-0.95-2.83-2.86
		c-0.31-1.04-0.64-1.79-1.01-2.24c-0.38-0.45-0.93-0.67-1.66-0.67c-1.26,0-2.2,0.63-2.84,1.89c-0.64,1.26-0.96,3.15-0.96,5.67
		c0,2.89,0.52,5.19,1.56,6.92c1.04,1.73,2.39,2.59,4.05,2.59c2.21,0,3.77-1.31,4.67-3.93c0.29-0.83,0.64-1.24,1.03-1.24
		c0.43,0,0.64,0.23,0.64,0.69c0,1.33-0.68,2.78-2.03,4.33c-1.36,1.56-3.39,2.33-6.08,2.33c-2.96,0-5.37-0.96-7.22-2.89
		C82.81,26.76,81.88,24.32,81.88,21.36z"/>
</g>
</svg>
