<?xml version="1.0" encoding="utf-8"?>
<!-- Generator: Adobe Illustrator 23.0.1, SVG Export Plug-In . SVG Version: 6.00 Build 0)  -->
<svg version="1.1" id="Layer_1" xmlns="http://www.w3.org/2000/svg" xmlns:xlink="http://www.w3.org/1999/xlink" x="0px" y="0px"
	 viewBox="0 0 100 100" style="enable-background:new 0 0 100 100;" xml:space="preserve">
<path d="M33.67,66.5C18.53,64.11,7.89,58.49,7.89,51.94c0-2.74,1.87-5.32,5.15-7.57l-2.77-5.21C3.84,42.71,0,47.14,0,51.94
	c0,14.27,15.37,30.17,36.35,35.21C32.82,81,32.38,73.76,33.67,66.5z M90.88,39.83l-2.3,5.79c2.26,1.94,3.53,4.08,3.53,6.33
	c0,7.95-15.68,14.53-36.08,15.63c-1.01,6.64-0.22,13.32,3.7,20.39C82.68,84.08,100,67.09,100,51.94
	C100,47.43,96.62,43.25,90.88,39.83z M65.48,54.57c-0.08,0.1,0.3,0.1,0.34,0.08c8.03-3.63,10.73-13.01,7.27-20.78
	c-0.6-1.35-1.66-2.9-3.13-4.28c-0.27,1.58-0.66,3.12-1.12,4.59c0.61,0.99,1.05,1.99,1.35,2.88C72.37,43.62,69.3,49.59,65.48,54.57z
	 M42.2,44.67c-1.48-3.26-2.01-6.89-1.58-10.66c0.54-4.8,2.92-8.78,6.48-11.67c-0.34-1.12-0.79-2.17-1.37-3.14
	c-10.07,5.71-11.79,20.57-4.96,28.27C41.24,46.53,41.72,45.6,42.2,44.67z M43.09,16.08c-0.76-0.65-1.61-1.24-2.55-1.74
	c-18.37,3.84-20.14,30.81-4.7,36.41c0.24,0.09,0.52-0.2,0.32-0.43c-5.22-4.79-7.31-11.24-6.54-18.09
	C30.45,24.91,36.04,19.07,43.09,16.08z M80.48,33.22c2.68,7.98-1.07,15.27-5.72,21.33c-0.09,0.13,0.36,0.12,0.41,0.09
	c9.77-4.42,13.06-15.85,8.85-25.3c-1.79-4.01-6.9-9.51-14.62-9.9c0.41,1.23,0.67,2.48,0.81,3.74C76.34,24.82,79.3,29.68,80.48,33.22
	z M60.71,43.06c3.06-6.39,7.05-13.97,5.57-21.37C64.4,12.26,55.79,6.58,47.24,6.58c-2.61,0-5.12,0.43-7.61,1.37
	C36.13,7.48,32.46,7.88,29,9.27c-11.19,4.48-14.58,13.65-14.59,23.46c-0.01,7.65,3.7,14.78,11.04,17.39
	c0.24,0.08,0.52-0.21,0.32-0.43C19.9,44.24,17.96,37,18.75,29.28c0.79-7.77,6.38-13.84,10.86-16.01c4.88-2.36,12.12-1.43,16.01,1.32
	c6.39,4.5,7.93,14.37,2.69,25.09c-2.8,5.72-5.92,11.36-8.08,17.36c-4.62,12.84-6.39,26.51,5.15,36.11c1.12,0.93,2.24-0.7,1.59-1.72
	C36.52,74.9,42.73,60.5,50.51,44.23c3.06-6.38,7.05-13.97,5.57-21.37c-1.07-5.36-4.22-9.47-8.36-12.05
	c3.07,0.22,6.04,1.15,8.09,2.59c6.39,4.5,7.93,14.37,2.69,25.09c-2.8,5.72-5.92,11.36-8.08,17.36c-4.62,12.84-6.39,26.51,5.15,36.11
	c1.12,0.93,2.24-0.7,1.59-1.72C46.72,73.72,52.92,59.32,60.71,43.06z"/>
</svg>
